<svg version="1.1" id="Слой_1" xmlns="http://www.w3.org/2000/svg" xmlns:xlink="http://www.w3.org/1999/xlink" x="0px" y="0px"
	 viewBox="0 0 1001.2 1157.3" xml:space="preserve">
<style type="text/css">
    /* Цвет изменен с #000200 на #FFFFFF */
	.st0{fill:none;stroke:#FFFFFF;stroke-width:22;stroke-linecap:round;stroke-linejoin:round;stroke-miterlimit:10;}
</style>
<polyline class="st0" points="469.7,209.9 469.7,24.1 897.7,24.1 897.7,280.9 683.7,280.9 "/>
<polyline class="st0" points="469.7,24.1 683.7,152.5 897.7,24.1 "/>
<rect x="255.7" y="211.6" class="st0" width="428" height="256.8"/>
<polyline class="st0" points="255.7,211.6 469.7,340 683.7,211.6 "/>
<path class="st0" d="M253.7,295.2c0,0-315.7,142-214.4,545"/>
<path class="st0" d="M86,578.7c0,0-66.7,232.5,113.6,448.7"/>
<path class="st0" d="M66,913.7c0,0,60,137.5,149.6,220.7"/>
<path class="st0" d="M255.7,468.4c0,0-100.7,80.8-100.7,231.3"/>
<rect x="548.6" y="632.6" class="st0" width="428" height="256.8"/>
<polyline class="st0" points="548.6,632.6 762.6,761 976.6,632.6 "/>
<path class="st0" d="M376,470.4c0,0-230,152.2-60,422.8"/>
</svg>